<svg width="177" height="26" viewBox="0 0 177 26" fill="none" xmlns="http://www.w3.org/2000/svg"><path d="M55.596 19.18C54.312 19.18 53.154 18.904 52.122 18.352C51.09 17.788 50.28 17.014 49.692 16.03C49.104 15.034 48.81 13.924 48.81 12.7C48.81 11.476 49.104 10.372 49.692 9.388C50.28 8.392 51.09 7.618 52.122 7.066C53.154 6.502 54.312 6.22 55.596 6.22C56.88 6.22 58.038 6.502 59.07 7.066C60.102 7.618 60.912 8.386 61.5 9.37C62.088 10.354 62.382 11.464 62.382 12.7C62.382 13.936 62.088 15.046 61.5 16.03C60.912 17.014 60.102 17.788 59.07 18.352C58.038 18.904 56.88 19.18 55.596 19.18ZM55.596 17.128C56.436 17.128 57.192 16.942 57.864 16.57C58.536 16.186 59.064 15.658 59.448 14.986C59.832 14.302 60.024 13.54 60.024 12.7C60.024 11.86 59.832 11.104 59.448 10.432C59.064 9.748 58.536 9.22 57.864 8.848C57.192 8.464 56.436 8.272 55.596 8.272C54.756 8.272 54 8.464 53.328 8.848C52.656 9.22 52.128 9.748 51.744 10.432C51.36 11.104 51.168 11.86 51.168 12.7C51.168 13.54 51.36 14.302 51.744 14.986C52.128 15.658 52.656 16.186 53.328 16.57C54 16.942 54.756 17.128 55.596 17.128ZM69.0911 19.126C68.0951 19.126 67.2011 18.916 66.4091 18.496C65.6171 18.076 64.9991 17.494 64.5551 16.75C64.1111 15.994 63.8891 15.142 63.8891 14.194C63.8891 13.246 64.1111 12.4 64.5551 11.656C64.9991 10.912 65.6111 10.33 66.3911 9.91C67.1831 9.49 68.0831 9.28 69.0911 9.28C70.0391 9.28 70.8671 9.472 71.5751 9.856C72.2951 10.24 72.8351 10.792 73.1951 11.512L71.4671 12.52C71.1911 12.076 70.8431 11.746 70.4231 11.53C70.0151 11.302 69.5651 11.188 69.0731 11.188C68.2331 11.188 67.5371 11.464 66.9851 12.016C66.4331 12.556 66.1571 13.282 66.1571 14.194C66.1571 15.106 66.4271 15.838 66.9671 16.39C67.5191 16.93 68.2211 17.2 69.0731 17.2C69.5651 17.2 70.0151 17.092 70.4231 16.876C70.8431 16.648 71.1911 16.312 71.4671 15.868L73.1951 16.876C72.8231 17.596 72.2771 18.154 71.5571 18.55C70.8491 18.934 70.0271 19.126 69.0911 19.126ZM82.7022 11.296H79.3362V19H77.0862V11.296H73.7022V9.388H82.7022V11.296ZM89.6623 9.28C90.5983 9.28 91.4323 9.484 92.1643 9.892C92.9083 10.3 93.4903 10.876 93.9103 11.62C94.3303 12.364 94.5403 13.222 94.5403 14.194C94.5403 15.166 94.3303 16.03 93.9103 16.786C93.4903 17.53 92.9083 18.106 92.1643 18.514C91.4323 18.922 90.5983 19.126 89.6623 19.126C88.3663 19.126 87.3403 18.694 86.5843 17.83V22.492H84.3343V9.388H86.4763V10.648C86.8483 10.192 87.3043 9.85 87.8443 9.622C88.3963 9.394 89.0023 9.28 89.6623 9.28ZM89.4103 17.2C90.2383 17.2 90.9163 16.924 91.4443 16.372C91.9843 15.82 92.2543 15.094 92.2543 14.194C92.2543 13.294 91.9843 12.568 91.4443 12.016C90.9163 11.464 90.2383 11.188 89.4103 11.188C88.8703 11.188 88.3843 11.314 87.9523 11.566C87.5203 11.806 87.1783 12.154 86.9263 12.61C86.6743 13.066 86.5483 13.594 86.5483 14.194C86.5483 14.794 86.6743 15.322 86.9263 15.778C87.1783 16.234 87.5203 16.588 87.9523 16.84C88.3843 17.08 88.8703 17.2 89.4103 17.2ZM101.064 19.126C100.092 19.126 99.2156 18.916 98.4356 18.496C97.6556 18.076 97.0436 17.494 96.5996 16.75C96.1676 15.994 95.9516 15.142 95.9516 14.194C95.9516 13.246 96.1676 12.4 96.5996 11.656C97.0436 10.912 97.6556 10.33 98.4356 9.91C99.2156 9.49 100.092 9.28 101.064 9.28C102.048 9.28 102.93 9.49 103.71 9.91C104.49 10.33 105.096 10.912 105.528 11.656C105.972 12.4 106.194 13.246 106.194 14.194C106.194 15.142 105.972 15.994 105.528 16.75C105.096 17.494 104.49 18.076 103.71 18.496C102.93 18.916 102.048 19.126 101.064 19.126ZM101.064 17.2C101.892 17.2 102.576 16.924 103.116 16.372C103.656 15.82 103.926 15.094 103.926 14.194C103.926 13.294 103.656 12.568 103.116 12.016C102.576 11.464 101.892 11.188 101.064 11.188C100.236 11.188 99.5516 11.464 99.0116 12.016C98.4836 12.568 98.2196 13.294 98.2196 14.194C98.2196 15.094 98.4836 15.82 99.0116 16.372C99.5516 16.924 100.236 17.2 101.064 17.2ZM115.382 13.996C116.57 14.356 117.164 15.124 117.164 16.3C117.164 17.164 116.84 17.83 116.192 18.298C115.544 18.766 114.584 19 113.312 19H108.416V9.388H113.114C114.29 9.388 115.208 9.604 115.868 10.036C116.528 10.468 116.858 11.08 116.858 11.872C116.858 12.364 116.726 12.79 116.462 13.15C116.21 13.51 115.85 13.792 115.382 13.996ZM110.558 13.402H112.916C114.08 13.402 114.662 13 114.662 12.196C114.662 11.416 114.08 11.026 112.916 11.026H110.558V13.402ZM113.132 17.362C114.368 17.362 114.986 16.96 114.986 16.156C114.986 15.736 114.842 15.424 114.554 15.22C114.266 15.004 113.816 14.896 113.204 14.896H110.558V17.362H113.132ZM125.609 19.18C124.337 19.18 123.185 18.904 122.153 18.352C121.133 17.788 120.329 17.014 119.741 16.03C119.165 15.046 118.877 13.936 118.877 12.7C118.877 11.464 119.171 10.354 119.759 9.37C120.347 8.386 121.151 7.618 122.171 7.066C123.203 6.502 124.355 6.22 125.627 6.22C126.659 6.22 127.601 6.4 128.453 6.76C129.305 7.12 130.025 7.642 130.613 8.326L129.101 9.748C128.189 8.764 127.067 8.272 125.735 8.272C124.871 8.272 124.097 8.464 123.413 8.848C122.729 9.22 122.195 9.742 121.811 10.414C121.427 11.086 121.235 11.848 121.235 12.7C121.235 13.552 121.427 14.314 121.811 14.986C122.195 15.658 122.729 16.186 123.413 16.57C124.097 16.942 124.871 17.128 125.735 17.128C127.067 17.128 128.189 16.63 129.101 15.634L130.613 17.074C130.025 17.758 129.299 18.28 128.435 18.64C127.583 19 126.641 19.18 125.609 19.18ZM139.884 11.296H136.518V19H134.268V11.296H130.884V9.388H139.884V11.296ZM146.844 9.28C147.78 9.28 148.614 9.484 149.346 9.892C150.09 10.3 150.672 10.876 151.092 11.62C151.512 12.364 151.722 13.222 151.722 14.194C151.722 15.166 151.512 16.03 151.092 16.786C150.672 17.53 150.09 18.106 149.346 18.514C148.614 18.922 147.78 19.126 146.844 19.126C145.548 19.126 144.522 18.694 143.766 17.83V22.492H141.516V9.388H143.658V10.648C144.03 10.192 144.486 9.85 145.026 9.622C145.578 9.394 146.184 9.28 146.844 9.28ZM146.592 17.2C147.42 17.2 148.098 16.924 148.626 16.372C149.166 15.82 149.436 15.094 149.436 14.194C149.436 13.294 149.166 12.568 148.626 12.016C148.098 11.464 147.42 11.188 146.592 11.188C146.052 11.188 145.566 11.314 145.134 11.566C144.702 11.806 144.36 12.154 144.108 12.61C143.856 13.066 143.73 13.594 143.73 14.194C143.73 14.794 143.856 15.322 144.108 15.778C144.36 16.234 144.702 16.588 145.134 16.84C145.566 17.08 146.052 17.2 146.592 17.2ZM158.245 19.126C157.273 19.126 156.397 18.916 155.617 18.496C154.837 18.076 154.225 17.494 153.781 16.75C153.349 15.994 153.133 15.142 153.133 14.194C153.133 13.246 153.349 12.4 153.781 11.656C154.225 10.912 154.837 10.33 155.617 9.91C156.397 9.49 157.273 9.28 158.245 9.28C159.229 9.28 160.111 9.49 160.891 9.91C161.671 10.33 162.277 10.912 162.709 11.656C163.153 12.4 163.375 13.246 163.375 14.194C163.375 15.142 163.153 15.994 162.709 16.75C162.277 17.494 161.671 18.076 160.891 18.496C160.111 18.916 159.229 19.126 158.245 19.126ZM158.245 17.2C159.073 17.2 159.757 16.924 160.297 16.372C160.837 15.82 161.107 15.094 161.107 14.194C161.107 13.294 160.837 12.568 160.297 12.016C159.757 11.464 159.073 11.188 158.245 11.188C157.417 11.188 156.733 11.464 156.193 12.016C155.665 12.568 155.401 13.294 155.401 14.194C155.401 15.094 155.665 15.82 156.193 16.372C156.733 16.924 157.417 17.2 158.245 17.2ZM165.598 9.388H167.848V15.724L173.158 9.388H175.21V19H172.96V12.664L167.668 19H165.598V9.388ZM170.26 8.254C169.288 8.254 168.544 8.032 168.028 7.588C167.524 7.132 167.266 6.472 167.254 5.608H168.748C168.76 6.04 168.892 6.382 169.144 6.634C169.408 6.886 169.774 7.012 170.242 7.012C170.698 7.012 171.058 6.886 171.322 6.634C171.598 6.382 171.742 6.04 171.754 5.608H173.284C173.272 6.472 173.008 7.132 172.492 7.588C171.976 8.032 171.232 8.254 170.26 8.254Z" fill="#fff"/><path fill-rule="evenodd" clip-rule="evenodd" d="M24 19V16H26V19H24ZM20 13H22V19H20V13ZM16 10H18V19H16V10ZM12 6H14V19H12V6ZM8 10H10V19H8V10ZM4 13H6V19H4V13ZM0 16H2V19H0V16Z" fill="#E1DF9D"/></svg>